<svg width="339" height="111" viewBox="0 0 339 111" fill="none" xmlns="http://www.w3.org/2000/svg">
<path d="M158.138 66.1232C156.074 66.1232 154.082 65.8712 152.162 65.3672C150.266 64.8392 148.718 64.1672 147.518 63.3512L149.858 58.0952C150.986 58.8152 152.282 59.4152 153.746 59.8952C155.234 60.3512 156.71 60.5792 158.174 60.5792C159.158 60.5792 159.95 60.4952 160.55 60.3272C161.15 60.1352 161.582 59.8952 161.846 59.6072C162.134 59.2952 162.278 58.9352 162.278 58.5272C162.278 57.9512 162.014 57.4952 161.486 57.1592C160.958 56.8232 160.274 56.5472 159.434 56.3312C158.594 56.1152 157.658 55.8992 156.626 55.6832C155.618 55.4672 154.598 55.1912 153.566 54.8552C152.558 54.5192 151.634 54.0872 150.794 53.5592C149.954 53.0072 149.27 52.2992 148.742 51.4352C148.214 50.5472 147.95 49.4312 147.95 48.0872C147.95 46.5752 148.358 45.2072 149.174 43.9832C150.014 42.7592 151.262 41.7752 152.918 41.0312C154.574 40.2872 156.638 39.9152 159.11 39.9152C160.766 39.9152 162.386 40.1072 163.97 40.4912C165.578 40.8512 167.006 41.3912 168.254 42.1112L166.058 47.4032C164.858 46.7552 163.67 46.2752 162.494 45.9632C161.318 45.6272 160.178 45.4592 159.074 45.4592C158.09 45.4592 157.298 45.5672 156.698 45.7832C156.098 45.9752 155.666 46.2392 155.402 46.5752C155.138 46.9112 155.006 47.2952 155.006 47.7272C155.006 48.2792 155.258 48.7232 155.762 49.0592C156.29 49.3712 156.974 49.6352 157.814 49.8512C158.678 50.0432 159.614 50.2472 160.622 50.4632C161.654 50.6792 162.674 50.9552 163.682 51.2912C164.714 51.6032 165.65 52.0352 166.49 52.5872C167.33 53.1152 168.002 53.8232 168.506 54.7112C169.034 55.5752 169.298 56.6672 169.298 57.9872C169.298 59.4512 168.878 60.8072 168.038 62.0552C167.222 63.2792 165.986 64.2632 164.33 65.0072C162.698 65.7512 160.634 66.1232 158.138 66.1232ZM184.218 66.1232C180.498 66.1232 177.594 65.1032 175.506 63.0632C173.418 61.0232 172.374 58.1312 172.374 54.3872V40.4192H179.502V54.1712C179.502 56.3312 179.922 57.8792 180.762 58.8152C181.626 59.7512 182.802 60.2192 184.29 60.2192C185.778 60.2192 186.942 59.7512 187.782 58.8152C188.622 57.8792 189.042 56.3312 189.042 54.1712V40.4192H196.062V54.3872C196.062 58.1312 195.018 61.0232 192.93 63.0632C190.842 65.1032 187.938 66.1232 184.218 66.1232ZM200.891 65.6192V40.4192H212.411C214.715 40.4192 216.695 40.7912 218.351 41.5352C220.031 42.2792 221.327 43.3592 222.239 44.7752C223.151 46.1672 223.607 47.8232 223.607 49.7432C223.607 51.6392 223.151 53.2832 222.239 54.6752C221.327 56.0672 220.031 57.1472 218.351 57.9152C216.695 58.6592 214.715 59.0312 212.411 59.0312H204.851L208.019 55.9352V65.6192H200.891ZM208.019 56.6912L204.851 53.4152H211.979C213.467 53.4152 214.571 53.0912 215.291 52.4432C216.035 51.7952 216.407 50.8952 216.407 49.7432C216.407 48.5672 216.035 47.6552 215.291 47.0072C214.571 46.3592 213.467 46.0352 211.979 46.0352H204.851L208.019 42.7592V56.6912ZM233.634 50.1752H245.334V55.5032H233.634V50.1752ZM234.138 60.1112H247.314V65.6192H227.082V40.4192H246.846V45.9272H234.138V60.1112ZM251.27 65.6192V40.4192H262.79C265.094 40.4192 267.074 40.7912 268.73 41.5352C270.41 42.2792 271.706 43.3592 272.618 44.7752C273.53 46.1672 273.986 47.8232 273.986 49.7432C273.986 51.6392 273.53 53.2832 272.618 54.6752C271.706 56.0432 270.41 57.0992 268.73 57.8432C267.074 58.5632 265.094 58.9232 262.79 58.9232H255.23L258.398 55.9352V65.6192H251.27ZM266.858 65.6192L260.594 56.4392H268.19L274.49 65.6192H266.858ZM258.398 56.6912L255.23 53.4152H262.358C263.846 53.4152 264.95 53.0912 265.67 52.4432C266.414 51.7952 266.786 50.8952 266.786 49.7432C266.786 48.5672 266.414 47.6552 265.67 47.0072C264.95 46.3592 263.846 46.0352 262.358 46.0352H255.23L258.398 42.7592V56.6912ZM149.282 95.6192V70.4192H156.41V89.9672H168.434V95.6192H149.282ZM177.806 80.1752H189.506V85.5032H177.806V80.1752ZM178.31 90.1112H191.486V95.6192H171.254V70.4192H191.018V75.9272H178.31V90.1112ZM192.418 95.6192L203.542 70.4192H210.562L221.722 95.6192H214.306L205.594 73.9112H208.402L199.69 95.6192H192.418ZM198.502 90.7232L200.338 85.4672H212.65L214.486 90.7232H198.502ZM235.991 96.1232C233.999 96.1232 232.151 95.8112 230.447 95.1872C228.743 94.5392 227.267 93.6272 226.019 92.4512C224.795 91.2752 223.835 89.8952 223.139 88.3112C222.443 86.7032 222.095 84.9392 222.095 83.0192C222.095 81.0992 222.443 79.3472 223.139 77.7632C223.835 76.1552 224.807 74.7632 226.055 73.5872C227.303 72.4112 228.779 71.5112 230.483 70.8872C232.211 70.2392 234.095 69.9152 236.135 69.9152C238.511 69.9152 240.635 70.3112 242.507 71.1032C244.379 71.8952 245.927 73.0352 247.151 74.5232L242.615 78.6272C241.751 77.6912 240.815 76.9952 239.807 76.5392C238.823 76.0592 237.719 75.8192 236.495 75.8192C235.415 75.8192 234.431 75.9872 233.543 76.3232C232.655 76.6592 231.899 77.1512 231.275 77.7992C230.651 78.4232 230.159 79.1792 229.799 80.0672C229.463 80.9312 229.295 81.9152 229.295 83.0192C229.295 84.0752 229.463 85.0472 229.799 85.9352C230.159 86.8232 230.651 87.5912 231.275 88.2392C231.899 88.8632 232.643 89.3552 233.507 89.7152C234.395 90.0512 235.367 90.2192 236.423 90.2192C237.479 90.2192 238.511 90.0512 239.519 89.7152C240.527 89.3552 241.547 88.7552 242.579 87.9152L246.575 92.9192C245.135 93.9512 243.467 94.7432 241.571 95.2952C239.675 95.8472 237.815 96.1232 235.991 96.1232ZM240.275 91.9832V82.4792H246.575V92.9192L240.275 91.9832ZM262.722 96.1232C259.002 96.1232 256.098 95.1032 254.01 93.0632C251.922 91.0232 250.878 88.1312 250.878 84.3872V70.4192H258.006V84.1712C258.006 86.3312 258.426 87.8792 259.266 88.8152C260.13 89.7512 261.306 90.2192 262.794 90.2192C264.282 90.2192 265.446 89.7512 266.286 88.8152C267.126 87.8792 267.546 86.3312 267.546 84.1712V70.4192H274.566V84.3872C274.566 88.1312 273.522 91.0232 271.434 93.0632C269.346 95.1032 266.442 96.1232 262.722 96.1232ZM285.947 80.1752H297.647V85.5032H285.947V80.1752ZM286.451 90.1112H299.627V95.6192H279.395V70.4192H299.159V75.9272H286.451V90.1112Z" fill="white"/>
<path d="M154.646 28.9289V9.38086H146.906V3.72886H169.478V9.38086H161.774V28.9289H154.646ZM188.981 3.72886H196.109V28.9289H188.981V3.72886ZM179.261 28.9289H172.133V3.72886H179.261V28.9289ZM189.485 19.1009H178.757V13.1969H189.485V19.1009ZM207.689 13.4849H219.389V18.8129H207.689V13.4849ZM208.193 23.4209H221.369V28.9289H201.137V3.72886H220.901V9.23686H208.193V23.4209Z" fill="url(#paint0_linear_107_2)"/>
<path d="M86.1949 8.78182C92.9017 13.0576 98.6278 18.7147 102.965 25.348C98.4424 27.7446 96.4179 33.241 98.4379 38.0509C100.69 43.4126 101.937 49.3001 101.937 55.5C101.937 61.6999 100.69 67.5874 98.4379 72.9491C96.4179 77.759 98.4424 83.2554 102.965 85.652C98.6278 92.2853 92.9017 97.9424 86.1949 102.218C83.8423 97.6662 78.3586 95.5871 73.5265 97.5658C68.1311 99.7751 62.2074 101 55.9684 101C49.7293 101 43.8056 99.7751 38.4102 97.5658C33.5781 95.5871 28.0945 97.6662 25.7418 102.218C19.0351 97.9424 13.3089 92.2852 8.97213 85.652C13.4943 83.2554 15.5188 77.759 13.4989 72.9491C11.2472 67.5874 10 61.6999 10 55.5C10 49.3001 11.2472 43.4126 13.4989 38.0509C15.5188 33.241 13.4943 27.7446 8.97213 25.348C13.3089 18.7147 19.0351 13.0576 25.7419 8.78182C28.0945 13.3338 33.5781 15.4129 38.4103 13.4342C43.8056 11.2249 49.7293 10 55.9684 10C62.2074 10 68.1311 11.2249 73.5265 13.4342C78.3586 15.4129 83.8423 13.3338 86.1949 8.78182Z" stroke="#CD3DC8" stroke-width="20" stroke-linecap="round" stroke-linejoin="round" stroke-dasharray="90 90"/>
<defs>
<linearGradient id="paint0_linear_107_2" x1="146.762" y1="4.87656" x2="239.184" y2="35.2971" gradientUnits="userSpaceOnUse">
<stop stop-color="#6ED3D3"/>
<stop offset="0.375" stop-color="#74D3D5"/>
<stop offset="0.646794" stop-color="#CC3EC8"/>
<stop offset="1" stop-color="#CD3BC7"/>
</linearGradient>
</defs>
</svg>
